<?xml version="1.0" encoding="utf-8"?>
<!-- Generator: Adobe Illustrator 25.0.0, SVG Export Plug-In . SVG Version: 6.00 Build 0)  -->
<svg version="1.1" id="圖層_1" xmlns="http://www.w3.org/2000/svg" xmlns:xlink="http://www.w3.org/1999/xlink" x="0px" y="0px"
	 viewBox="0 0 75 79" style="enable-background:new 0 0 75 79;" xml:space="preserve">
<g>
	<path d="M46.6,27.6c2.9,1.1,6.3,2.1,8.8,4L53,28.7l0.4-1.2L46.6,27.6z"/>
	<path d="M42.1,4.9c-10.4,0-19.5,5.3-24.9,13.3c8.2-8.5,17.1-10.3,25.2,0c-0.2-3.8-3.7-8.1-7.5-8.8c6.2-0.3,9.9,2.2,11.9,7.7
		c0.3,0.9,0.7,1.9,1.2,3c1.6,1.2,5.1,3.6,7.2,5.3c1.6,1.2,1.9,2,2.2,3.7c0.9,0.7,8,6.6,5.8,7.4c-0.8,0.3-3.9-0.6-4.7-0.8
		c-0.5-0.2-1-0.5-1.3-1.1c-0.1,1,0.7,2.1,1.6,2.9c0.6,0.5,1.3,1,2.1,1.3c1.8,0.7,0.6,4.2-0.3,5.1c-0.9,0.8-6.3,1.5-7.7,1.3
		c-1.3-0.2-1.8-0.8-1.8-0.8l-5.5-1l7.7-0.2l-7.8-1.8l7.3-0.2l-7.1-1.6h5c0.6,0,0.8-0.2,0.7-0.5c0.1-1.1,0.5-1.6,1.6-2
		c-2.4-1.4-4.8-3.6-4.8-3.6c1,1.8-0.1,2.5-1.9,1c-0.5-0.5-1.2-1.1-1.9-1.9c-2.4-2.6-6.6-2.9-6.6-2.9c-0.8,1.6-1.2,3.8-1.2,5.6
		c-0.7-0.5-1-2.7-0.9-4.7c-1.2,2.1-2.7,5.6-3,9.4c-0.8-3.5-0.8-6.6,0-9.4c-8.6-1.6-7.1-12.7,0-10.2c1.9,0.7,3.1,2.2,3.1,2.2
		c-2.1,0.2-3.7,1-4.7,1.7c1.8,0.1,3.2,0.9,3.2,0.9s-1.2,0-2.9,0.9c0.7,0.6,1.3,1.7,1.9,2.9c1.3-3,3.5-5.7,6.5-7.9
		c-2.6-2.7-5.4-3.6-8.4-3.5c2-0.8,4.3-1,7.2-0.2c-2.9-3.5-6.8-3.9-10.4-2.7c-4,1.3-6.8,3.7-9.8,5.1C14.3,21.7,7.6,23.6,3,16.6
		c1.8,7.6,8.8,11.2,16.5,8.5c2.3-0.8,4.2-2.2,5.9-3.5c-0.9,2.2-0.5,4.7,0.7,6.8c-6.3,6.8-7.7,13.3-6.7,18.9
		c-2.9-4.5-4-10.3,2.1-20.4C15,31.7,12,39.5,13.1,46c1.7,10.1,15,14,20.1,22.4c0.7-3.1,0.4-6.4-3.9-11.7c3.4,2.5,7.8,5.6,9.4,7.5
		c6.3,7.4,0.8,12.9,0.8,12.9c8.6-3,10.6-13.2,2.5-19.2c-3.3-2.5-7.6-4.6-10.9-7.2c-6.3-5-7.3-13-1.5-19c-0.5,4.7,0.6,11.5,4.7,15.1
		c-0.3-4.6,2.3-9.2,2.3-9.2c1.2,5.3,4.7,9.3,8,13.4c0.9-2,2.6-3.2,3.8-3.9c-2,5.6,3.7,10.4,3,16.3C63.2,59.5,72,48.2,72,34.8
		C72,18.3,58.6,4.9,42.1,4.9z M56.8,55.2c0,0-0.2-1.2-0.4-2.3c-1,1.6-2.5,1.9-2.5,1.9s0.1-1.5,0.3-2.7c-1.2,1-1.9,1.1-1.9,1.1
		c-0.3-1.6-0.6-2.4-1.2-3.9c2.1-2.2,5.1-3.4,8.1-3.4c1.3,0,1.8,0.4,1.9,1.3C61.4,50.4,59.9,54,56.8,55.2z"/>
</g>
</svg>
